<mxfile host="Electron" modified="2024-07-11T22:09:44.731Z" agent="Mozilla/5.0 (Windows NT 10.0; Win64; x64) AppleWebKit/537.36 (KHTML, like Gecko) draw.io/24.6.4 Chrome/124.0.6367.207 Electron/30.0.6 Safari/537.36" etag="FEyQupruwcLQ9dKNjZzu" version="24.6.4" type="device">
  <diagram id="C5RBs43oDa-KdzZeNtuy" name="Page-1">
    <mxGraphModel dx="864" dy="516" grid="1" gridSize="10" guides="1" tooltips="1" connect="1" arrows="1" fold="1" page="1" pageScale="1" pageWidth="827" pageHeight="1169" math="0" shadow="0">
      <root>
        <mxCell id="WIyWlLk6GJQsqaUBKTNV-0" />
        <mxCell id="WIyWlLk6GJQsqaUBKTNV-1" parent="WIyWlLk6GJQsqaUBKTNV-0" />
        <mxCell id="jYvnrc7WvTUkd0m6BxXu-1" value="Usuario" style="swimlane;fontStyle=1;align=center;verticalAlign=top;childLayout=stackLayout;horizontal=1;startSize=26;horizontalStack=0;resizeParent=1;resizeParentMax=0;resizeLast=0;collapsible=1;marginBottom=0;whiteSpace=wrap;html=1;" vertex="1" parent="WIyWlLk6GJQsqaUBKTNV-1">
          <mxGeometry x="120" y="80" width="160" height="190" as="geometry" />
        </mxCell>
        <mxCell id="jYvnrc7WvTUkd0m6BxXu-2" value="ID&lt;div&gt;Nombre&lt;/div&gt;&lt;div&gt;Edad&lt;/div&gt;&lt;div&gt;Genero&lt;/div&gt;&lt;div&gt;Peso&lt;/div&gt;&lt;div&gt;Altura&lt;/div&gt;&lt;div&gt;Rutinas&lt;/div&gt;" style="text;strokeColor=none;fillColor=none;align=left;verticalAlign=top;spacingLeft=4;spacingRight=4;overflow=hidden;rotatable=0;points=[[0,0.5],[1,0.5]];portConstraint=eastwest;whiteSpace=wrap;html=1;" vertex="1" parent="jYvnrc7WvTUkd0m6BxXu-1">
          <mxGeometry y="26" width="160" height="114" as="geometry" />
        </mxCell>
        <mxCell id="jYvnrc7WvTUkd0m6BxXu-3" value="" style="line;strokeWidth=1;fillColor=none;align=left;verticalAlign=middle;spacingTop=-1;spacingLeft=3;spacingRight=3;rotatable=0;labelPosition=right;points=[];portConstraint=eastwest;strokeColor=inherit;" vertex="1" parent="jYvnrc7WvTUkd0m6BxXu-1">
          <mxGeometry y="140" width="160" height="8" as="geometry" />
        </mxCell>
        <mxCell id="jYvnrc7WvTUkd0m6BxXu-4" value="calcularIMC()&lt;div&gt;obtenerEjercicios()&lt;/div&gt;" style="text;strokeColor=none;fillColor=none;align=left;verticalAlign=top;spacingLeft=4;spacingRight=4;overflow=hidden;rotatable=0;points=[[0,0.5],[1,0.5]];portConstraint=eastwest;whiteSpace=wrap;html=1;" vertex="1" parent="jYvnrc7WvTUkd0m6BxXu-1">
          <mxGeometry y="148" width="160" height="42" as="geometry" />
        </mxCell>
        <mxCell id="jYvnrc7WvTUkd0m6BxXu-5" value="Rutina" style="swimlane;fontStyle=1;align=center;verticalAlign=top;childLayout=stackLayout;horizontal=1;startSize=26;horizontalStack=0;resizeParent=1;resizeParentMax=0;resizeLast=0;collapsible=1;marginBottom=0;whiteSpace=wrap;html=1;" vertex="1" parent="WIyWlLk6GJQsqaUBKTNV-1">
          <mxGeometry x="600" y="80" width="160" height="120" as="geometry" />
        </mxCell>
        <mxCell id="jYvnrc7WvTUkd0m6BxXu-6" value="Nombre&lt;div&gt;Ejercicios&lt;/div&gt;" style="text;strokeColor=none;fillColor=none;align=left;verticalAlign=top;spacingLeft=4;spacingRight=4;overflow=hidden;rotatable=0;points=[[0,0.5],[1,0.5]];portConstraint=eastwest;whiteSpace=wrap;html=1;" vertex="1" parent="jYvnrc7WvTUkd0m6BxXu-5">
          <mxGeometry y="26" width="160" height="44" as="geometry" />
        </mxCell>
        <mxCell id="jYvnrc7WvTUkd0m6BxXu-7" value="" style="line;strokeWidth=1;fillColor=none;align=left;verticalAlign=middle;spacingTop=-1;spacingLeft=3;spacingRight=3;rotatable=0;labelPosition=right;points=[];portConstraint=eastwest;strokeColor=inherit;" vertex="1" parent="jYvnrc7WvTUkd0m6BxXu-5">
          <mxGeometry y="70" width="160" height="8" as="geometry" />
        </mxCell>
        <mxCell id="jYvnrc7WvTUkd0m6BxXu-8" value="agregarEjercicio()&lt;div&gt;eliminarEjercicio()&lt;/div&gt;" style="text;strokeColor=none;fillColor=none;align=left;verticalAlign=top;spacingLeft=4;spacingRight=4;overflow=hidden;rotatable=0;points=[[0,0.5],[1,0.5]];portConstraint=eastwest;whiteSpace=wrap;html=1;" vertex="1" parent="jYvnrc7WvTUkd0m6BxXu-5">
          <mxGeometry y="78" width="160" height="42" as="geometry" />
        </mxCell>
        <mxCell id="jYvnrc7WvTUkd0m6BxXu-18" style="edgeStyle=orthogonalEdgeStyle;rounded=0;orthogonalLoop=1;jettySize=auto;html=1;entryX=0.5;entryY=1;entryDx=0;entryDy=0;entryPerimeter=0;" edge="1" parent="WIyWlLk6GJQsqaUBKTNV-1" source="jYvnrc7WvTUkd0m6BxXu-9" target="jYvnrc7WvTUkd0m6BxXu-8">
          <mxGeometry relative="1" as="geometry">
            <mxPoint x="680" y="210" as="targetPoint" />
          </mxGeometry>
        </mxCell>
        <mxCell id="jYvnrc7WvTUkd0m6BxXu-9" value="Ejercicio" style="swimlane;fontStyle=1;align=center;verticalAlign=top;childLayout=stackLayout;horizontal=1;startSize=26;horizontalStack=0;resizeParent=1;resizeParentMax=0;resizeLast=0;collapsible=1;marginBottom=0;whiteSpace=wrap;html=1;" vertex="1" parent="WIyWlLk6GJQsqaUBKTNV-1">
          <mxGeometry x="600" y="280" width="160" height="118" as="geometry" />
        </mxCell>
        <mxCell id="jYvnrc7WvTUkd0m6BxXu-10" value="ID&lt;div&gt;Nombre&lt;/div&gt;&lt;div&gt;TipoEjercicio&lt;/div&gt;&lt;div&gt;Repeticiones&lt;/div&gt;&lt;div&gt;Series&lt;/div&gt;" style="text;strokeColor=none;fillColor=none;align=left;verticalAlign=top;spacingLeft=4;spacingRight=4;overflow=hidden;rotatable=0;points=[[0,0.5],[1,0.5]];portConstraint=eastwest;whiteSpace=wrap;html=1;" vertex="1" parent="jYvnrc7WvTUkd0m6BxXu-9">
          <mxGeometry y="26" width="160" height="84" as="geometry" />
        </mxCell>
        <mxCell id="jYvnrc7WvTUkd0m6BxXu-11" value="" style="line;strokeWidth=1;fillColor=none;align=left;verticalAlign=middle;spacingTop=-1;spacingLeft=3;spacingRight=3;rotatable=0;labelPosition=right;points=[];portConstraint=eastwest;strokeColor=inherit;" vertex="1" parent="jYvnrc7WvTUkd0m6BxXu-9">
          <mxGeometry y="110" width="160" height="8" as="geometry" />
        </mxCell>
        <mxCell id="jYvnrc7WvTUkd0m6BxXu-13" value="PlanificadorRutinas" style="swimlane;fontStyle=1;align=center;verticalAlign=top;childLayout=stackLayout;horizontal=1;startSize=26;horizontalStack=0;resizeParent=1;resizeParentMax=0;resizeLast=0;collapsible=1;marginBottom=0;whiteSpace=wrap;html=1;" vertex="1" parent="WIyWlLk6GJQsqaUBKTNV-1">
          <mxGeometry x="360" y="80" width="160" height="120" as="geometry" />
        </mxCell>
        <mxCell id="jYvnrc7WvTUkd0m6BxXu-14" value="Usuarios&lt;div&gt;Rutinas&lt;/div&gt;" style="text;strokeColor=none;fillColor=none;align=left;verticalAlign=top;spacingLeft=4;spacingRight=4;overflow=hidden;rotatable=0;points=[[0,0.5],[1,0.5]];portConstraint=eastwest;whiteSpace=wrap;html=1;" vertex="1" parent="jYvnrc7WvTUkd0m6BxXu-13">
          <mxGeometry y="26" width="160" height="44" as="geometry" />
        </mxCell>
        <mxCell id="jYvnrc7WvTUkd0m6BxXu-15" value="" style="line;strokeWidth=1;fillColor=none;align=left;verticalAlign=middle;spacingTop=-1;spacingLeft=3;spacingRight=3;rotatable=0;labelPosition=right;points=[];portConstraint=eastwest;strokeColor=inherit;" vertex="1" parent="jYvnrc7WvTUkd0m6BxXu-13">
          <mxGeometry y="70" width="160" height="8" as="geometry" />
        </mxCell>
        <mxCell id="jYvnrc7WvTUkd0m6BxXu-16" value="crearRutina()&lt;div&gt;asignarRutina()&lt;/div&gt;" style="text;strokeColor=none;fillColor=none;align=left;verticalAlign=top;spacingLeft=4;spacingRight=4;overflow=hidden;rotatable=0;points=[[0,0.5],[1,0.5]];portConstraint=eastwest;whiteSpace=wrap;html=1;" vertex="1" parent="jYvnrc7WvTUkd0m6BxXu-13">
          <mxGeometry y="78" width="160" height="42" as="geometry" />
        </mxCell>
        <mxCell id="jYvnrc7WvTUkd0m6BxXu-19" style="edgeStyle=orthogonalEdgeStyle;rounded=0;orthogonalLoop=1;jettySize=auto;html=1;entryX=1;entryY=0.5;entryDx=0;entryDy=0;" edge="1" parent="WIyWlLk6GJQsqaUBKTNV-1" source="jYvnrc7WvTUkd0m6BxXu-6" target="jYvnrc7WvTUkd0m6BxXu-14">
          <mxGeometry relative="1" as="geometry" />
        </mxCell>
        <mxCell id="jYvnrc7WvTUkd0m6BxXu-21" style="edgeStyle=orthogonalEdgeStyle;rounded=0;orthogonalLoop=1;jettySize=auto;html=1;entryX=-0.019;entryY=0.119;entryDx=0;entryDy=0;entryPerimeter=0;" edge="1" parent="WIyWlLk6GJQsqaUBKTNV-1" source="jYvnrc7WvTUkd0m6BxXu-2" target="jYvnrc7WvTUkd0m6BxXu-16">
          <mxGeometry relative="1" as="geometry" />
        </mxCell>
      </root>
    </mxGraphModel>
  </diagram>
</mxfile>
